<svg xmlns="http://www.w3.org/2000/svg" xmlns:xlink="http://www.w3.org/1999/xlink" viewBox="0 0 151.65 237.47"><defs><style>.cls-1{fill:none;}.cls-2{fill:#293549;}.cls-3{fill:#3bab5e;}.cls-4{fill:#f7f8f9;}.cls-5{opacity:0.4;isolation:isolate;}.cls-6{clip-path:url(#clip-path);}.cls-7{fill:#424143;}.cls-8{clip-path:url(#clip-path-3);}.cls-9{clip-path:url(#clip-path-5);}.cls-10{clip-path:url(#clip-path-6);}.cls-11{clip-path:url(#clip-path-7);}.cls-12{clip-path:url(#clip-path-9);}.cls-13{clip-path:url(#clip-path-10);}.cls-14{clip-path:url(#clip-path-11);}</style><clipPath id="clip-path"><rect class="cls-1" x="59.08" y="81.92" width="72.57" height="31.61"/></clipPath><clipPath id="clip-path-3"><rect class="cls-1" x="20" y="81.64" width="31.9" height="31.89"/></clipPath><clipPath id="clip-path-5"><rect class="cls-1" x="59.08" y="121.24" width="72.57" height="31.61"/></clipPath><clipPath id="clip-path-6"><rect class="cls-1" x="59.08" y="121.24" width="72.57" height="31.61"/></clipPath><clipPath id="clip-path-7"><rect class="cls-1" x="20" y="120.95" width="31.9" height="31.9"/></clipPath><clipPath id="clip-path-9"><rect class="cls-1" x="59.08" y="160.55" width="72.57" height="31.62"/></clipPath><clipPath id="clip-path-10"><rect class="cls-1" x="59.08" y="160.55" width="72.57" height="31.61"/></clipPath><clipPath id="clip-path-11"><rect class="cls-1" x="20" y="160.27" width="31.9" height="31.9"/></clipPath></defs><title>agencia</title><g id="Capa_2" data-name="Capa 2"><g id="Capa_1-2" data-name="Capa 1"><path class="cls-2" d="M0,8.9A8.92,8.92,0,0,1,8.89,0H142.76a8.92,8.92,0,0,1,8.89,8.9V228.58a8.92,8.92,0,0,1-8.89,8.89H8.89A8.9,8.9,0,0,1,0,228.58Z"/><rect class="cls-3" x="8.89" y="31.02" width="133.86" height="167.77"/><path class="cls-4" d="M81.34,14.57h-11a.45.45,0,0,1,0-.89h11a.45.45,0,1,1,0,.89"/><path class="cls-4" d="M84.94,16.94H66.71a.45.45,0,1,1,0-.89H84.94a.44.44,0,0,1,.44.45.43.43,0,0,1-.44.44"/><path class="cls-4" d="M81.34,19.32h-11a.45.45,0,0,1,0-.9h11a.45.45,0,0,1,.45.45.45.45,0,0,1-.45.45"/><path class="cls-4" d="M75.82,229.44a9.67,9.67,0,1,1,9.68-9.67,9.68,9.68,0,0,1-9.68,9.67m0-18.46a8.79,8.79,0,1,0,8.78,8.79A8.8,8.8,0,0,0,75.82,211"/><rect class="cls-4" x="20" y="39.98" width="111.64" height="31.61"/><g class="cls-5"><g class="cls-6"><g class="cls-6"><rect class="cls-7" x="59.08" y="81.92" width="72.57" height="31.61"/></g></g></g><g class="cls-5"><g class="cls-8"><g class="cls-8"><rect class="cls-7" x="20" y="81.63" width="31.9" height="31.9"/></g></g></g><g class="cls-5"><g class="cls-9"><g class="cls-10"><rect class="cls-7" x="59.08" y="121.23" width="72.57" height="31.61"/></g></g></g><g class="cls-5"><g class="cls-11"><g class="cls-11"><rect class="cls-7" x="20" y="120.95" width="31.9" height="31.9"/></g></g></g><g class="cls-5"><g class="cls-12"><g class="cls-13"><rect class="cls-7" x="59.08" y="160.55" width="72.57" height="31.61"/></g></g></g><g class="cls-5"><g class="cls-14"><g class="cls-14"><rect class="cls-7" x="20" y="160.26" width="31.9" height="31.9"/></g></g></g></g></g></svg>