<svg xmlns="http://www.w3.org/2000/svg" viewBox="0 0 90 90"><defs><style>.cls-1{fill:#009500;}.cls-2{fill:#fff;}</style></defs><title>icono</title><g id="Capa_2" data-name="Capa 2"><g id="Capa_1-2" data-name="Capa 1"><path class="cls-1" d="M90,45A45,45,0,1,1,45,0,45,45,0,0,1,90,45"/><path class="cls-2" d="M63.88,41.55H24.61V33.14a3.52,3.52,0,0,1,3.51-3.51h7.71v-3.5A2.1,2.1,0,0,1,37.93,24H50.56a2.1,2.1,0,0,1,2.1,2.11v3.5h7.71a3.52,3.52,0,0,1,3.51,3.51Zm0,12.62a3.52,3.52,0,0,1-3.51,3.51H28.12a3.52,3.52,0,0,1-3.51-3.51V43.65H39.34v3.51a1.4,1.4,0,0,0,1.4,1.4h7a1.4,1.4,0,0,0,1.4-1.4V43.65H63.88Zm-14-27.34H38.63v2.8H49.85Zm-2.8,19.63H41.44V43.65h5.61Z"/></g></g></svg>