<svg xmlns="http://www.w3.org/2000/svg" viewBox="0 0 148 30.01"><defs><style>.cls-1{fill:#fff;}.cls-2{fill:#12afaf;}</style></defs><title>logo</title><g id="Capa_2" data-name="Capa 2"><g id="Capa_1-2" data-name="Capa 1"><path class="cls-1" d="M47.2,24.9V4.7h3.6l3.1,7.9c.6,1.6,1.6,4.2,2.2,5.9h.1c-.1-2.1-.4-5.7-.4-9.4V4.7h3.5V24.9H55.7l-3.1-7.7a62.14,62.14,0,0,1-2-6.1h-.1c.1,2,.2,5.2.2,9.2v4.6Z"/><polygon class="cls-1" points="71.3 16 66.7 16 66.7 21.5 71.9 21.5 71.9 24.9 62.7 24.9 62.7 4.7 71.5 4.7 71.5 8.1 66.6 8.1 66.6 12.8 71.2 12.8 71.3 16"/><polygon class="cls-1" points="76.8 8.3 73.2 8.3 73.2 4.7 84.3 4.7 84.3 8.3 80.7 8.3 80.7 24.9 76.8 24.9 76.8 8.3"/><path class="cls-1" d="M89,24.9,85.5,4.6h4.1l1,8.1c.3,2.3.5,4.6.7,7.1h.1c.3-2.5.7-4.7,1.1-7.1l1.4-8.1h3.2l1.4,8c.4,2.3.7,4.5,1,7.2h.1c.3-2.6.5-4.8.8-7.2l1-8h3.8l-3.6,20.3H97.5l-1.2-6.6c-.3-1.9-.6-4.2-.9-6.6h-.1c-.4,2.4-.7,4.7-1.1,6.7L92.8,25Z"/><path class="cls-1" d="M119.3,14.4c0,7.6-2.7,10.7-6.6,10.7s-6.4-4.9-6.4-10.4S108.5,4.4,113,4.4s6.3,5.4,6.3,10m-8.9.4c0,4.6.9,6.9,2.5,6.9s2.3-3,2.3-7.1-.5-6.8-2.3-6.8-2.5,2.6-2.5,7"/><path class="cls-1" d="M121.8,5a20.87,20.87,0,0,1,4.3-.4c2.2,0,4.1.3,5.4,1.5a5.43,5.43,0,0,1,1.6,4.2,5.27,5.27,0,0,1-3.1,5.1c1.4.5,2.1,1.8,2.5,4a33.86,33.86,0,0,0,1.3,5.5h-4.1a27.34,27.34,0,0,1-1-4.8c-.4-2.5-1-3.2-2.3-3.2h-.6V25h-3.9V5Zm3.9,8.8h.7c1.7,0,2.7-1.4,2.7-3.2s-.7-2.9-2.5-3h-.9v6.2Z"/><polygon class="cls-1" points="135.9 4.7 139.8 4.7 139.8 13.8 139.9 13.8 140.9 11.2 143.6 4.7 147.9 4.7 143.4 13.5 148 25 143.7 25 140.8 16.6 139.9 18.3 139.9 25 135.9 25 135.9 4.7"/><path class="cls-2" d="M9.9,0A2.77,2.77,0,0,0,7.6,1.3L.3,13.9a3,3,0,0,0,0,2.6L7.6,28.9A2.59,2.59,0,0,0,9.9,30H24.5a2.59,2.59,0,0,0,2.3-1.1l7.3-12.5a2.44,2.44,0,0,0,0-2.6L26.8,1.3A2.77,2.77,0,0,0,24.5,0ZM10,7.1h2.6l.3.3L17.2,15v.2l4.3-7.7.3-.3h2.5c.2.1.4.4.3.6l-4.2,7.5,4.2,7.4c.1.2-.1.4-.3.5H21.8l-.3-.2-4.3-7.5h-.1L12.8,23l-.3.2H10c-.2,0-.3,0-.4-.2a.37.37,0,0,1,.1-.3l4.2-7.4L9.7,7.8a.37.37,0,0,1,.2-.5Z"/></g></g></svg>